#tb 0: 1/25
#media_type 0: video
#codec_id 0: rawvideo
#dimensions 0: 72x72
#sar 0: 0/1
0,          0,          0,        1,     7776, 0x7cef305a
0,          1,          1,        1,     7776, 0xe85633d8
0,          2,          2,        1,     7776, 0x38b13204
0,          3,          3,        1,     7776, 0x62c22ba8
0,          4,          4,        1,     7776, 0x38b42d19
0,          5,          5,        1,     7776, 0x80ed2acc
0,          6,          6,        1,     7776, 0xbe1f28b7
0,          7,          7,        1,     7776, 0xfa7726d3
0,          8,          8,        1,     7776, 0x473123c3
0,          9,          9,        1,     7776, 0x79072354
0,         10,         10,        1,     7776, 0x1c141c43
0,         11,         11,        1,     7776, 0x50ec1c56
0,         12,         12,        1,     7776, 0x6ccc17bf
0,         13,         13,        1,     7776, 0x68101a13
0,         14,         14,        1,     7776, 0x63a21e20
0,         15,         15,        1,     7776, 0xab352043
0,         16,         16,        1,     7776, 0xb81323d6
0,         17,         17,        1,     7776, 0xd08b2931
0,         18,         18,        1,     7776, 0x3ce82ac8
0,         19,         19,        1,     7776, 0x62382cd6
0,         20,         20,        1,     7776, 0x72252ff0
0,         21,         21,        1,     7776, 0x15043309
0,         22,         22,        1,     7776, 0xa6b93378
0,         23,         23,        1,     7776, 0x032c35bf
0,         24,         24,        1,     7776, 0xaf5e36ab
0,         25,         25,        1,     7776, 0x2c682ef1
0,         26,         26,        1,     7776, 0x07f6319e
0,         27,         27,        1,     7776, 0x028e3257
0,         28,         28,        1,     7776, 0x92cb3763
0,         29,         29,        1,     7776, 0x7d7536d1
0,         30,         30,        1,     7776, 0xe8743875
0,         31,         31,        1,     7776, 0x06763a63
0,         32,         32,        1,     7776, 0xe1973be5
0,         33,         33,        1,     7776, 0x26283bde
0,         36,         36,        1,     7776, 0xbcda3aca
